<!DOCTYPE svg PUBLIC "-//W3C//DTD SVG 20010904//EN" "http://www.w3.org/TR/2001/REC-SVG-20010904/DTD/svg10.dtd">
<svg version="1.0" xmlns="http://www.w3.org/2000/svg" width="300px" height="200px" viewBox="0 0 3000 2000" preserveAspectRatio="xMidYMid meet">
<g id="layer101" fill="#081f40" stroke="none">
 <path d="M0 1000 l0 -1000 1500 0 1500 0 0 1000 0 1000 -1500 0 -1500 0 0 -1000z"/>
 </g>
<g id="layer102" fill="#e9ab22" stroke="none">
 <path d="M1190 1443 c0 -4 11 -43 24 -87 14 -45 34 -113 45 -153 l21 -71 91 -21 c50 -12 92 -21 95 -21 2 0 4 40 4 90 l0 90 -135 90 c-135 90 -145 96 -145 83z"/>
 <path d="M1653 1357 l-133 -91 0 -88 c0 -57 4 -88 11 -88 12 0 172 40 176 44 4 4 93 300 93 309 0 14 -16 5 -147 -86z"/>
 <path d="M1150 999 c-63 -49 -122 -97 -130 -105 -12 -12 7 -14 155 -14 l170 1 49 72 c27 40 48 76 48 82 0 5 -31 17 -69 27 -37 9 -77 19 -88 22 -15 4 -52 -20 -135 -85z"/>
 <path d="M1630 1066 c-57 -15 -84 -27 -82 -36 2 -7 24 -44 50 -81 l47 -68 170 -1 c148 0 167 2 155 14 -25 25 -245 196 -250 195 -3 -1 -43 -11 -90 -23z"/>
 <path d="M1437 930 l-56 -80 56 -160 c31 -88 58 -158 59 -157 2 1 28 73 58 159 l54 156 -54 81 c-30 44 -56 81 -58 81 -1 0 -28 -36 -59 -80z"/>
 </g>

</svg>